<?xml version="1.0" encoding="iso-8859-1"?>
<!-- Uploaded to: SVG Repo, www.svgrepo.com, Generator: SVG Repo Mixer Tools -->
<svg fill="#000000" height="800px" width="800px" version="1.1" id="Layer_1" xmlns="http://www.w3.org/2000/svg" xmlns:xlink="http://www.w3.org/1999/xlink" 
	 viewBox="0 0 512 512" xml:space="preserve">
<g transform="translate(1)">
	<g>
		<path d="M474.429,141.714h-32.914c-8.229-10.057-37.486-36.571-76.8-36.571H363.8c-28.343,0-48.457,2.743-67.657,27.429h-256
			C17.286,132.571-1,150.857-1,173.714c0,22.857,18.286,41.143,41.143,41.143l94.171-1.829c-4.571,6.4-7.314,14.629-7.314,22.857
			c0,21.029,14.629,37.486,33.829,41.143c-0.914,1.829-1.829,2.743-2.743,4.571c-4.571,10.057-5.486,21.029-1.829,31.086
			l0.914,1.829c1.094,3.284,2.595,6.344,4.418,9.147c3.721,6.28,9.469,11.378,16.611,14.624c5.108,2.554,10.226,4.295,16.072,4.525
			c-2.537,7.905-2.572,16.775,0.386,25.646c3.657,10.971,10.971,19.2,21.029,23.771c0.552,0.236,1.089,0.456,1.628,0.679
			c0.897,0.388,1.805,0.752,2.728,1.076c4.654,1.736,9.025,2.816,13.93,2.816c3.519,0,7.034-0.548,10.136-1.631
			c0.279-0.067,0.557-0.125,0.836-0.197c10.057,2.743,49.371,11.886,83.2,11.886c64,0,76.8-0.914,112.457-27.429h33.829
			c21.029,0,36.571-15.543,36.571-35.657V178.286C511,158.171,494.543,141.714,474.429,141.714z M40.143,196.571
			c-12.8,0-22.857-10.057-22.857-22.857s10.057-22.857,22.857-22.857h242.286c-0.271,0.271-0.454,0.542-0.589,0.812
			c-11.444,15.312-23.586,31.639-33.548,45.175c-0.764-0.173-1.574-0.273-2.435-0.273h-77.714c-0.914,0-0.914,0-1.829,0H40.143z
			 M146.2,237.714c0-6.4,1.829-11.886,6.4-16.457c3.657-3.657,9.143-6.4,14.629-6.4h67.918c-1.476,2.049-2.797,3.897-3.918,5.486
			c-7.564,11.347-10.989,21.011-12.029,28.996c-0.257,0.075-0.514,0.158-0.771,0.261l-26.976,9.442l-18.738,2.444h-3.657
			C156.257,261.486,146.2,250.514,146.2,237.714z M242.2,376.686c-5.486,1.829-11.886,1.829-17.371-0.914
			c-1.407-0.704-2.753-1.529-4.009-2.458c-2.761-2.508-4.9-5.697-6.048-9.427c-1.829-5.486-1.829-11.886,0.914-17.371
			s7.314-10.057,12.8-11.886c1.314-0.525,2.469-1.36,3.416-2.381l82.527-28.705c1.255-0.437,2.473-0.932,3.655-1.476l3.66-1.267
			c2.743-0.914,4.571-0.914,7.314-0.914c3.657,0,6.4,0.914,10.057,1.829c5.486,2.743,10.057,7.314,11.886,12.8
			c1.829,5.486,1.829,11.886-0.914,17.371c-2.743,5.486-7.314,10.057-12.8,11.886L242.2,376.686z M254.086,288
			c0.437,0,0.888-0.016,1.34-0.033c4.938,0.003,9.778-0.847,14.203-2.71c11.886-4.571,29.257-16.457,49.371-32
			c0.914,0.914,0.914,1.829,1.829,3.657l0.914,1.829c2.898,9.419,0.037,19.395-7.184,24.957l-94.302,32.643
			c-3.298,1.099-6.343,2.618-9.12,4.444l-8.251,2.87c-1.29,0.43-2.58,0.754-3.869,0.97c-7.028,0.744-13.89-1.556-18.576-6.325
			c-2.258-2.375-3.932-5.208-4.983-8.36l-0.914-1.829c-1.353-4.398-1.448-8.918-0.436-13.057c0.341-1.134,0.784-2.267,1.351-3.401
			c2.743-5.486,7.314-9.143,12.8-10.971l10.057-3.657c0.741-0.37,1.441-0.858,2.084-1.431l17.116-5.884
			c4.889,6.518,12.321,11.76,20.595,14.928C243.047,286.841,248.566,288,254.086,288z M492.714,343.771
			c0,9.143-8.229,17.371-18.286,17.371h-35.657c-2.743,0-5.486,0-7.314,1.829c-32.914,24.686-40.229,25.6-104.229,25.6
			c-16.34,0-34.597-2.496-49.586-5.2l64.215-22.228c10.971-3.657,19.2-10.971,23.771-21.029c4.571-9.143,5.486-21.029,1.829-31.086
			c-3.657-10.971-10.971-19.2-21.029-23.771c-2.68-1.34-5.598-2.356-8.634-3.044c4.104-9.071,4.863-19.683,1.32-29.87l-0.914-1.829
			c-1.412-3.295-3.315-6.584-5.571-9.629c24.168-21.005,45.66-43.987,51.286-57.113c1.829-4.571,0-10.057-4.571-11.886
			c-4.571-1.829-10.057,0-11.886,4.571c-4.543,11.104-26.92,34.468-51.131,55.172c-0.974,0.343-1.92,0.845-2.812,1.514
			c-20.114,17.371-39.314,30.171-51.2,34.743c-6.257,2.275-15.697,0.303-23.04-3.934c-5.243-7.335-3.352-19.101,6.583-33.552
			c10.971-15.543,40.229-54.857,62.171-83.2c0,0,0-0.001,0.001-0.001c15.543-21.942,28.343-23.771,56.685-23.771h0.914
			c37.486,0,64.914,32.914,64.914,32.914c1.829,2.743,4.571,3.657,7.314,3.657h36.571c10.057,0,18.286,8.229,18.286,18.286V343.771z
			"/>
	</g>
</g>
</svg>